<svg width="134" height="42" viewBox="0 0 134 42" fill="none" xmlns="http://www.w3.org/2000/svg">
<g id="apple">
<path id="Vector" d="M133.11 37.0415C133.11 37.5701 133.012 38.0935 132.82 38.5818C132.629 39.0701 132.348 39.5137 131.995 39.8873C131.641 40.2609 131.221 40.5571 130.759 40.759C130.297 40.9609 129.802 41.0646 129.302 41.064H4.69544C3.68549 41.0652 2.71648 40.642 2.0015 39.8876C1.28652 39.1333 0.884129 38.1095 0.882812 37.0415V4.96265C0.884128 3.8941 1.28636 2.86978 2.0012 2.11459C2.71603 1.35941 3.68503 0.935092 4.69544 0.934814H129.301C129.802 0.934814 130.297 1.03901 130.759 1.24144C131.221 1.44387 131.641 1.74057 131.994 2.1146C132.348 2.48864 132.628 2.93267 132.82 3.42134C133.011 3.91002 133.109 4.43376 133.109 4.96265L133.11 37.0415Z" fill="white"/>
<path id="Vector_2" d="M129.303 42H4.69651C3.45237 41.9997 2.25915 41.4775 1.37867 40.5479C0.49819 39.6184 0.00236725 38.3574 0 37.0416L0 4.96388C0.00184052 3.6475 0.497336 2.38563 1.37779 1.4551C2.25824 0.524565 3.45176 0.00135522 4.69651 0.000244141L129.303 0.000244141C130.547 0.00190962 131.74 0.525297 132.621 1.45571C133.501 2.38612 133.997 3.64767 133.999 4.96388V37.0416C134.001 39.7766 131.891 42 129.303 42Z" fill="#333333"/>
<path id="Vector_3" d="M133.11 37.0415C133.11 37.5701 133.012 38.0935 132.82 38.5818C132.629 39.0701 132.348 39.5137 131.995 39.8873C131.641 40.2609 131.221 40.5571 130.759 40.759C130.297 40.9609 129.802 41.0646 129.302 41.064H4.69544C3.68549 41.0652 2.71648 40.642 2.0015 39.8876C1.28652 39.1333 0.884129 38.1095 0.882812 37.0415V4.96265C0.884128 3.8941 1.28636 2.86978 2.0012 2.11459C2.71603 1.35941 3.68503 0.935092 4.69544 0.934814H129.301C129.802 0.934814 130.297 1.03901 130.759 1.24144C131.221 1.44387 131.641 1.74057 131.994 2.1146C132.348 2.48864 132.628 2.93267 132.82 3.42134C133.011 3.91002 133.109 4.43376 133.109 4.96265L133.11 37.0415Z" fill="#333333"/>
<path id="Vector_4" d="M33.3649 21.2426C33.3395 18.1914 35.6765 16.707 35.7833 16.6378C34.4598 14.5523 32.4084 14.2673 31.6875 14.2446C29.9645 14.0486 28.2933 15.3588 27.4156 15.3588C26.5204 15.3588 25.1688 14.2635 23.7121 14.2957C21.8377 14.3269 20.084 15.4999 19.1223 17.3214C17.1374 21.0353 18.6177 26.493 20.5194 29.495C21.4706 30.9662 22.5822 32.6068 24.0371 32.5491C25.4605 32.4866 25.9922 31.5692 27.7099 31.5692C29.4118 31.5692 29.9111 32.5491 31.3949 32.5122C32.9225 32.4866 33.8843 31.0353 34.8023 29.5518C35.9016 27.8676 36.3431 26.2071 36.3606 26.1219C36.3255 26.1087 33.3947 24.8988 33.3649 21.2426ZM30.5619 12.2698C31.3275 11.235 31.8513 9.82726 31.7059 8.39868C30.5978 8.4517 29.2121 9.22705 28.4141 10.2391C27.7081 11.1309 27.0775 12.5926 27.2404 13.9672C28.4851 14.0675 29.7631 13.2884 30.5619 12.2698Z" fill="white"/>
<path id="Vector_5" d="M129.302 0H62.5588L88.7009 41.9998H129.302C130.546 41.9987 131.74 41.4757 132.62 40.5457C133.5 39.6156 133.996 38.3543 133.999 37.0382V4.96364C133.996 3.64734 133.501 2.38563 132.62 1.45516C131.74 0.524687 130.547 0.00138839 129.302 0V0Z" fill="url(#paint0_linear_149_1302)"/>
<path id="Vector_6" d="M54.951 32.0175H52.934L51.8291 28.3172H47.9888L46.9363 32.0175H44.9727L48.7784 19.4201H51.1284L54.951 32.0175ZM51.4961 26.7648L50.4969 23.4753C50.3912 23.1393 50.1923 22.3479 49.901 21.1022H49.8654C49.7482 21.638 49.5608 22.4293 49.3041 23.4753L48.3219 26.7648H51.4961ZM64.7188 27.364C64.7188 28.9089 64.3253 30.13 63.5376 31.0264C62.8324 31.8244 61.9558 32.223 60.9104 32.223C59.7816 32.223 58.9698 31.7941 58.4769 30.9346V35.7008H56.5834V25.9195C56.5834 24.9492 56.5594 23.9543 56.5132 22.9339H58.1785L58.2842 24.3737H58.3197C58.9512 23.2889 59.9095 22.7464 61.1955 22.7464C62.2009 22.7464 63.0402 23.1696 63.7116 24.0168C64.3822 24.8659 64.7188 25.981 64.7188 27.364ZM62.7897 27.4379C62.7897 26.5537 62.6032 25.8248 62.2284 25.2502C61.819 24.6529 61.2692 24.3538 60.58 24.3538C60.1129 24.3538 59.6883 24.5204 59.3091 24.8489C58.929 25.1802 58.6803 25.6128 58.5639 26.1486C58.512 26.3489 58.4825 26.5552 58.476 26.7629V28.2784C58.476 28.9382 58.6661 29.4958 59.0462 29.952C59.4263 30.4064 59.9201 30.6346 60.5276 30.6346C61.2408 30.6346 61.7959 30.3402 62.1929 29.7561C62.5908 29.1701 62.7897 28.3977 62.7897 27.4379ZM74.5212 27.364C74.5212 28.9089 74.1278 30.13 73.34 31.0264C72.6339 31.8244 71.7582 32.223 70.712 32.223C69.5832 32.223 68.7714 31.7941 68.2785 30.9346V35.7008H66.3849V25.9195C66.3849 24.9492 66.361 23.9543 66.3148 22.9339H67.9801L68.0857 24.3737H68.1213C68.7519 23.2889 69.7102 22.7464 70.9971 22.7464C72.0016 22.7464 72.8409 23.1696 73.5141 24.0168C74.1837 24.8659 74.5212 25.981 74.5212 27.364ZM72.5913 27.4379C72.5913 26.5537 72.4039 25.8248 72.0291 25.2502C71.6197 24.6529 71.0717 24.3538 70.3825 24.3538C69.9153 24.3538 69.4908 24.5204 69.1098 24.8489C68.7296 25.1802 68.4819 25.6128 68.3655 26.1486C68.3078 26.3985 68.2767 26.602 68.2767 26.7629V28.2784C68.2767 28.9382 68.4676 29.4958 68.846 29.952C69.2261 30.4055 69.7199 30.6346 70.3292 30.6346C71.0433 30.6346 71.5984 30.3402 71.9945 29.7561C72.3924 29.1701 72.5913 28.3977 72.5913 27.4379ZM85.481 28.4839C85.481 29.5564 85.1292 30.4282 84.4303 31.1012C83.6611 31.8358 82.5874 32.204 81.2108 32.204C79.9389 32.204 78.9193 31.9428 78.1502 31.4193L78.5881 29.7372C79.4185 30.2616 80.3306 30.5229 81.3235 30.5229C82.0376 30.5229 82.5927 30.3506 82.9888 30.0088C83.3858 29.6662 83.5865 29.208 83.5865 28.6363C83.5865 28.1241 83.4205 27.6953 83.0945 27.346C82.7668 26.9977 82.225 26.673 81.4639 26.3748C79.3945 25.5522 78.3589 24.3491 78.3589 22.7663C78.3589 21.7326 78.7248 20.8864 79.4549 20.2247C80.1849 19.5639 81.153 19.2336 82.3573 19.2336C83.4329 19.2336 84.329 19.4333 85.0404 19.8318L84.5653 21.477C83.8956 21.0908 83.1398 20.8977 82.2943 20.8977C81.6264 20.8977 81.1024 21.0728 80.7276 21.4212C80.4123 21.7326 80.2524 22.1122 80.2524 22.5628C80.2524 23.0598 80.4345 23.4725 80.7969 23.7962C81.1113 24.0944 81.685 24.4191 82.5145 24.7675C83.5324 25.2048 84.2802 25.7141 84.7589 26.2991C85.2411 26.8841 85.481 27.6139 85.481 28.4839ZM91.7575 24.4485H89.6703V28.8587C89.6703 29.9804 90.038 30.5399 90.7752 30.5399C91.1136 30.5399 91.3942 30.5096 91.6163 30.4462L91.6687 31.9787C91.2956 32.1274 90.8045 32.2021 90.1961 32.2021C89.4483 32.2021 88.8639 31.9589 88.442 31.4723C88.0219 30.9857 87.8106 30.1707 87.8106 29.0234V24.4447H86.5672V22.9301H87.8106V21.2669L89.6703 20.6686V22.9301H91.7575V24.4485ZM101.156 27.4009C101.156 28.7972 100.781 29.9435 100.033 30.84C99.2508 31.7629 98.2098 32.223 96.9123 32.223C95.66 32.223 94.6644 31.7809 93.9219 30.8977C93.1794 30.0126 92.8081 28.8975 92.8081 27.5524C92.8081 26.1448 93.1918 24.9918 93.9565 24.0954C94.723 23.198 95.755 22.7493 97.0526 22.7493C98.3031 22.7493 99.3076 23.1923 100.068 24.0764C100.794 24.9341 101.156 26.0416 101.156 27.4009ZM99.193 27.4473C99.193 26.6152 99.0243 25.9015 98.6859 25.3042C98.2889 24.5829 97.7205 24.2222 96.9842 24.2222C96.2257 24.2222 95.644 24.5829 95.2479 25.3042C94.9086 25.9015 94.7399 26.6276 94.7399 27.4852C94.7399 28.3182 94.9086 29.0338 95.2479 29.6293C95.6573 30.3506 96.2284 30.7112 96.9682 30.7112C97.6921 30.7112 98.2596 30.343 98.6699 29.6113C99.0181 28.9998 99.193 28.2813 99.193 27.4473ZM107.313 24.7088C107.116 24.6709 106.917 24.6522 106.716 24.6529C106.05 24.6529 105.535 24.9199 105.173 25.4575C104.858 25.9308 104.7 26.5291 104.7 27.2514V32.0175H102.807V25.7945C102.809 24.841 102.79 23.8875 102.752 22.9348H104.401L104.47 24.6728H104.523C104.724 24.0755 105.038 23.5937 105.47 23.233C105.865 22.9179 106.345 22.7472 106.838 22.7464C107.013 22.7464 107.171 22.7597 107.312 22.7834L107.313 24.7088ZM115.782 27.046C115.787 27.3528 115.763 27.6593 115.713 27.9613H110.032C110.053 28.8587 110.329 29.5459 110.856 30.0193C111.335 30.4414 111.954 30.6535 112.714 30.6535C113.555 30.6535 114.323 30.5115 115.013 30.2247L115.309 31.6247C114.503 31.9996 113.551 32.186 112.452 32.186C111.131 32.186 110.093 31.7714 109.338 30.9441C108.585 30.1158 108.208 29.0026 108.208 27.6082C108.208 26.2394 108.559 25.0988 109.261 24.1891C109.996 23.2179 110.99 22.7323 112.241 22.7323C113.469 22.7323 114.399 23.2179 115.03 24.1891C115.53 24.9587 115.782 25.9129 115.782 27.046ZM113.976 26.5225C113.99 25.9233 113.865 25.4074 113.609 24.971C113.281 24.4087 112.776 24.1285 112.1 24.1285C111.481 24.1285 110.977 24.4021 110.593 24.9511C110.278 25.3875 110.091 25.9119 110.033 26.5206L113.976 26.5225ZM47.4426 14.9663C46.9159 14.9663 46.4603 14.9388 46.0811 14.8924V8.80194C46.6115 8.71461 47.1475 8.67156 47.6842 8.6732C49.8557 8.6732 50.8557 9.81197 50.8557 11.6683C50.8557 13.8095 49.6745 14.9663 47.4426 14.9663ZM47.7605 9.45415C47.4675 9.45415 47.2179 9.47308 47.0109 9.51852V14.1484C47.1229 14.1673 47.3378 14.1758 47.6398 14.1758C49.0626 14.1758 49.8726 13.3125 49.8726 11.6957C49.8726 10.254 49.1398 9.45415 47.7605 9.45415ZM53.9722 15.0126C52.7484 15.0126 51.9553 14.0386 51.9553 12.7162C51.9553 11.3379 52.7652 10.3553 54.0415 10.3553C55.2476 10.3553 56.0585 11.283 56.0585 12.6433C56.0585 14.0386 55.2227 15.0126 53.9722 15.0126ZM54.0078 11.0804C53.3354 11.0804 52.9047 11.7506 52.9047 12.6878C52.9047 13.6069 53.3443 14.2771 53.9989 14.2771C54.6534 14.2771 55.0931 13.5605 55.0931 12.6688C55.0931 11.7601 54.6623 11.0804 54.0078 11.0804ZM63.0375 10.4471L61.7275 14.9114H60.874L60.3313 12.9727C60.1964 12.4985 60.0841 12.0173 59.9947 11.531H59.977C59.9086 12.0176 59.7789 12.5051 59.6413 12.9727L59.064 14.9114H58.2016L56.9688 10.4471H57.9254L58.3996 12.5694C58.5115 13.0749 58.6057 13.552 58.6838 14.0026H58.7016C58.77 13.6268 58.8819 13.1573 59.0462 12.5789L59.6413 10.4481H60.3997L60.969 12.5335C61.1067 13.039 61.2186 13.535 61.3056 14.0036H61.3305C61.3909 13.5445 61.4859 13.0569 61.6147 12.5335L62.1236 10.4481L63.0375 10.4471ZM67.8602 14.9114H66.9294V12.3479C66.9294 11.5585 66.6452 11.1628 66.0847 11.1628C65.5332 11.1628 65.154 11.6683 65.154 12.2561V14.9114H64.2232V11.7232C64.2232 11.3284 64.2143 10.9053 64.1886 10.4462H65.0074L65.051 11.1353H65.0767C65.3272 10.6582 65.8352 10.3553 66.4045 10.3553C67.2837 10.3553 67.861 11.0719 67.861 12.2381L67.8602 14.9114ZM70.4269 14.9114H69.4952V8.39868H70.4269V14.9114ZM73.8205 15.0126C72.5975 15.0126 71.8035 14.0386 71.8035 12.7162C71.8035 11.3379 72.6135 10.3553 73.8889 10.3553C75.0959 10.3553 75.9059 11.283 75.9059 12.6433C75.9067 14.0386 75.0701 15.0126 73.8205 15.0126ZM73.8551 11.0804C73.1828 11.0804 72.7521 11.7506 72.7521 12.6878C72.7521 13.6069 73.1926 14.2771 73.8454 14.2771C74.5008 14.2771 74.9396 13.5605 74.9396 12.6688C74.9404 11.7601 74.5106 11.0804 73.8551 11.0804ZM79.5757 14.9114L79.5082 14.3973H79.4833C79.1991 14.811 78.7843 15.0126 78.2586 15.0126C77.5081 15.0126 76.9752 14.4523 76.9752 13.6988C76.9752 12.5969 77.8713 12.027 79.4229 12.027V11.9447C79.4229 11.3568 79.1307 11.0624 78.5534 11.0624C78.1404 11.0624 77.7781 11.1732 77.4592 11.3938L77.2701 10.7415C77.6573 10.4841 78.1404 10.3553 78.708 10.3553C79.8022 10.3553 80.3546 10.9706 80.3546 12.2022V13.8464C80.3546 14.297 80.3732 14.6463 80.415 14.9123L79.5757 14.9114ZM79.4478 12.6878C78.414 12.6878 77.8953 12.9547 77.8953 13.588C77.8953 14.0566 78.1626 14.2856 78.5339 14.2856C79.0073 14.2856 79.4478 13.9004 79.4478 13.3769V12.6878ZM84.8744 14.9114L84.8308 14.1948H84.8051C84.5377 14.7362 84.0883 15.0126 83.4604 15.0126C82.4506 15.0126 81.7028 14.066 81.7028 12.7342C81.7028 11.3379 82.4781 10.3544 83.5368 10.3544C84.0972 10.3544 84.4942 10.556 84.718 10.9612H84.7367V8.39868H85.6684V13.7082C85.6684 14.1399 85.6781 14.5441 85.703 14.9114H84.8744ZM84.7367 12.2845C84.7367 11.6598 84.3486 11.1268 83.7562 11.1268C83.0661 11.1268 82.6442 11.779 82.6442 12.6972C82.6442 13.5975 83.0821 14.2137 83.7375 14.2137C84.3228 14.2137 84.7367 13.6713 84.7367 13.0286V12.2845ZM91.5754 15.0126C90.3524 15.0126 89.5593 14.0386 89.5593 12.7162C89.5593 11.3379 90.3693 10.3553 91.6447 10.3553C92.8517 10.3553 93.6617 11.283 93.6617 12.6433C93.6625 14.0386 92.8268 15.0126 91.5754 15.0126ZM91.61 11.0804C90.9386 11.0804 90.5079 11.7506 90.5079 12.6878C90.5079 13.6069 90.9475 14.2771 91.6012 14.2771C92.2566 14.2771 92.6954 13.5605 92.6954 12.6688C92.6971 11.7601 92.2664 11.0804 91.61 11.0804ZM98.6672 14.9114H97.7356V12.3479C97.7356 11.5585 97.4514 11.1628 96.8909 11.1628C96.3394 11.1628 95.9611 11.6683 95.9611 12.2561V14.9114H95.0294V11.7232C95.0294 11.3284 95.0205 10.9053 94.9948 10.4462H95.8136L95.8571 11.1353H95.8829C96.1325 10.6582 96.6414 10.3544 97.2098 10.3544C98.0891 10.3544 98.6672 11.071 98.6672 12.2372V14.9114ZM104.93 11.1912H103.906V13.3589C103.906 13.9108 104.085 14.1863 104.447 14.1863C104.612 14.1863 104.749 14.1673 104.86 14.1399L104.886 14.8934C104.706 14.9672 104.464 15.0041 104.164 15.0041C103.43 15.0041 102.992 14.5725 102.992 13.4422V11.1912H102.381V10.4471H102.992V9.62927L103.906 9.33488V10.4462H104.93V11.1912ZM109.857 14.9114H108.927V12.3669C108.927 11.5679 108.644 11.1637 108.082 11.1637C107.6 11.1637 107.151 11.513 107.151 12.2201V14.9114H106.221V8.39868H107.151V11.0804H107.169C107.463 10.5939 107.887 10.3544 108.429 10.3544C109.315 10.3544 109.857 11.0889 109.857 12.2561V14.9114ZM114.905 12.9178H112.112C112.13 13.7631 112.655 14.2402 113.432 14.2402C113.845 14.2402 114.225 14.1664 114.561 14.0291L114.705 14.7183C114.309 14.9019 113.843 14.9937 113.3 14.9937C111.99 14.9937 111.215 14.1115 111.215 12.7436C111.215 11.3748 112.009 10.3459 113.196 10.3459C114.266 10.3459 114.937 11.1912 114.937 12.4682C114.943 12.6189 114.932 12.7698 114.905 12.9178ZM114.052 12.2107C114.052 11.5215 113.726 11.035 113.131 11.035C112.596 11.035 112.173 11.531 112.113 12.2107H114.052Z" fill="white"/>
</g>
<defs>
<linearGradient id="paint0_linear_149_1302" x1="98.2776" y1="42.1113" x2="98.2776" y2="-109.36" gradientUnits="userSpaceOnUse">
<stop stop-color="#1A1A1A" stop-opacity="0.1"/>
<stop offset="0.123" stop-color="#212121" stop-opacity="0.151"/>
<stop offset="0.308" stop-color="#353535" stop-opacity="0.227"/>
<stop offset="0.532" stop-color="#575757" stop-opacity="0.318"/>
<stop offset="0.783" stop-color="#858585" stop-opacity="0.421"/>
<stop offset="1" stop-color="#B3B3B3" stop-opacity="0.51"/>
</linearGradient>
</defs>
</svg>
