<svg width="15" height="14" viewBox="0 0 15 14" fill="none" xmlns="http://www.w3.org/2000/svg">
<path fill-rule="evenodd" clip-rule="evenodd" d="M3.04229 3.56394C3.03235 3.45393 3.04543 3.34304 3.08071 3.23836C3.11599 3.13368 3.17269 3.0375 3.24719 2.95594C3.32169 2.87438 3.41237 2.80924 3.51344 2.76466C3.61451 2.72008 3.72376 2.69705 3.83422 2.69702H13.476C13.5951 2.69707 13.7127 2.72386 13.82 2.77542C13.9274 2.82698 14.0218 2.90198 14.0962 2.99489C14.1707 3.08781 14.2234 3.19627 14.2504 3.31226C14.2773 3.42825 14.2779 3.54882 14.2521 3.66506L13.4374 7.33727C13.2972 7.96833 12.946 8.53272 12.4418 8.9372C11.9375 9.34168 11.3104 9.56207 10.6639 9.56195H6.17934C5.47022 9.56199 4.78673 9.29679 4.26321 8.81848C3.7397 8.34016 3.41402 7.68333 3.3502 6.97709L3.04229 3.56394ZM4.2069 3.83322L4.48186 6.87483C4.52017 7.29877 4.71573 7.69303 5.03008 7.98005C5.34443 8.26706 5.75481 8.42606 6.18048 8.42575H10.6651C11.0528 8.42565 11.429 8.29332 11.7314 8.0506C12.0338 7.80787 12.2444 7.46928 12.3285 7.09071L13.0522 3.83322H4.2069Z" fill="#62D0B6"/>
<path fill-rule="evenodd" clip-rule="evenodd" d="M0.692749 0.790146C0.692749 0.639477 0.752602 0.494978 0.859142 0.388439C0.965681 0.281899 1.11018 0.222046 1.26085 0.222046H3.25375C3.39271 0.222187 3.5268 0.273256 3.63065 0.36559C3.7345 0.457924 3.8009 0.585119 3.8173 0.723111L4.27405 4.58733C4.29168 4.7371 4.24909 4.88773 4.15566 5.0061C4.06222 5.12446 3.9256 5.20086 3.77583 5.21849C3.62607 5.23612 3.47543 5.19353 3.35707 5.1001C3.2387 5.00666 3.1623 4.87003 3.14467 4.72027L2.74814 1.35711H1.26085C1.11018 1.35711 0.965681 1.29726 0.859142 1.19072C0.752602 1.08418 0.692749 0.940816 0.692749 0.790146ZM5.80565 12.5305C5.95632 12.5305 6.10082 12.4707 6.20736 12.3641C6.3139 12.2576 6.37375 12.1131 6.37375 11.9624C6.37375 11.8117 6.3139 11.6672 6.20736 11.5607C6.10082 11.4542 5.95632 11.3943 5.80565 11.3943C5.65498 11.3943 5.51049 11.4542 5.40395 11.5607C5.29741 11.6672 5.23755 11.8117 5.23755 11.9624C5.23755 12.1131 5.29741 12.2576 5.40395 12.3641C5.51049 12.4707 5.65498 12.5305 5.80565 12.5305ZM5.80565 13.6667C6.02947 13.6667 6.25109 13.6226 6.45786 13.537C6.66464 13.4513 6.85252 13.3258 7.01078 13.1675C7.16904 13.0093 7.29457 12.8214 7.38022 12.6146C7.46587 12.4078 7.50996 12.1862 7.50996 11.9624C7.50996 11.7386 7.46587 11.517 7.38022 11.3102C7.29457 11.1034 7.16904 10.9155 7.01078 10.7573C6.85252 10.599 6.66464 10.4735 6.45786 10.3878C6.25109 10.3022 6.02947 10.2581 5.80565 10.2581C5.35364 10.2581 4.92015 10.4377 4.60053 10.7573C4.28091 11.0769 4.10135 11.5104 4.10135 11.9624C4.10135 12.4144 4.28091 12.8479 4.60053 13.1675C4.92015 13.4872 5.35364 13.6667 5.80565 13.6667ZM10.989 12.5305C11.1397 12.5305 11.2842 12.4707 11.3907 12.3641C11.4972 12.2576 11.5571 12.1131 11.5571 11.9624C11.5571 11.8117 11.4972 11.6672 11.3907 11.5607C11.2842 11.4542 11.1397 11.3943 10.989 11.3943C10.8383 11.3943 10.6938 11.4542 10.5873 11.5607C10.4808 11.6672 10.4209 11.8117 10.4209 11.9624C10.4209 12.1131 10.4808 12.2576 10.5873 12.3641C10.6938 12.4707 10.8383 12.5305 10.989 12.5305ZM10.989 13.6667C11.2128 13.6667 11.4344 13.6226 11.6412 13.537C11.848 13.4513 12.0359 13.3258 12.1941 13.1675C12.3524 13.0093 12.4779 12.8214 12.5636 12.6146C12.6492 12.4078 12.6933 12.1862 12.6933 11.9624C12.6933 11.7386 12.6492 11.517 12.5636 11.3102C12.4779 11.1034 12.3524 10.9155 12.1941 10.7573C12.0359 10.599 11.848 10.4735 11.6412 10.3878C11.4344 10.3022 11.2128 10.2581 10.989 10.2581C10.537 10.2581 10.1035 10.4377 9.78388 10.7573C9.46426 11.0769 9.2847 11.5104 9.2847 11.9624C9.2847 12.4144 9.46426 12.8479 9.78388 13.1675C10.1035 13.4872 10.537 13.6667 10.989 13.6667Z" fill="#62D0B6"/>
</svg>
